<svg width="0" height="0"><symbol xmlns="http://www.w3.org/2000/svg" id="arrow-back-outline" fill="none" viewBox="0 0 16 14"><path fill="currentColor" d="M15 6H3.14l3.63-4.36A1.001 1.001 0 0 0 5.23.36l-5 6a1.19 1.19 0 0 0-.09.15c0 .05 0 .08-.07.13A1 1 0 0 0 0 7a1 1 0 0 0 .07.36c0 .05 0 .08.07.13.026.052.056.102.09.15l5 6A1 1 0 0 0 6 14a1 1 0 0 0 .77-1.64L3.14 8H15a1 1 0 1 0 0-2Z"/></symbol><symbol xmlns="http://www.w3.org/2000/svg" id="check" fill="none" viewBox="0 0 18 18"><path fill="currentColor" d="M16 0H2a2 2 0 0 0-2 2v14a2 2 0 0 0 2 2h14a2 2 0 0 0 2-2V2a2 2 0 0 0-2-2ZM7 14 2 9l1.41-1.41L7 11.17l7.59-7.59L16 5l-9 9Z"/></symbol><symbol xmlns="http://www.w3.org/2000/svg" id="chevron" fill="none" viewBox="0 0 12 12"><path fill="currentColor" d="M9.77 7.257a.5.5 0 0 1-.82.385l-2.68-2.24-2.684 2.16a.5.5 0 0 1-.705-.075.5.5 0 0 1 .075-.73l3-2.415a.5.5 0 0 1 .635 0l3 2.5a.5.5 0 0 1 .18.415Z"/></symbol><symbol xmlns="http://www.w3.org/2000/svg" id="close" fill="none" viewBox="0 0 16 16"><path fill="currentColor" d="m8.94 8 2.867-2.86a.67.67 0 0 0-.947-.947L8 7.06 5.14 4.193a.67.67 0 0 0-.947.947L7.06 8l-2.867 2.86a.667.667 0 0 0 .217 1.093.667.667 0 0 0 .73-.146L8 8.94l2.86 2.867a.668.668 0 0 0 1.144-.474.668.668 0 0 0-.197-.473L8.94 8Z"/></symbol><symbol xmlns="http://www.w3.org/2000/svg" id="divider-horizontal" fill="none" viewBox="0 0 15 15"><path fill="currentColor" fill-rule="evenodd" d="M2 7.5a.5.5 0 0 1 .5-.5h10a.5.5 0 0 1 0 1h-10a.5.5 0 0 1-.5-.5Z" clip-rule="evenodd"/></symbol><symbol xmlns="http://www.w3.org/2000/svg" id="edit" fill="none" viewBox="0 0 16 16"><path fill="currentColor" d="M12.667 13.333H3.333a.667.667 0 1 0 0 1.334h9.334a.667.667 0 0 0 0-1.334ZM3.333 12h.06l2.78-.253c.305-.03.59-.165.807-.38l6-6a1.28 1.28 0 0 0-.047-1.807l-1.826-1.827a1.333 1.333 0 0 0-1.774-.046l-6 6c-.215.217-.35.502-.38.806l-.286 2.78a.667.667 0 0 0 .666.727Zm6.847-9.333L12 4.487l-1.333 1.3L8.88 4l1.3-1.333Zm-5.933 5.94L8 4.88l1.8 1.8-3.733 3.733-2 .187.18-1.993Z"/></symbol><symbol xmlns="http://www.w3.org/2000/svg" id="eye-closed" fill="none" viewBox="0 0 24 24"><path fill="currentColor" fill-rule="evenodd" d="M20.53 4.53a.75.75 0 0 0-1.06-1.06l-16 16a.75.75 0 1 0 1.06 1.06l2.847-2.847c1.367.644 2.94 1.067 4.623 1.067 2.684 0 5.09-1.077 6.82-2.405.867-.665 1.583-1.407 2.089-2.136.492-.709.841-1.486.841-2.209 0-.723-.35-1.5-.841-2.209-.506-.729-1.222-1.47-2.088-2.136-.263-.201-.54-.397-.832-.583L20.53 4.53ZM16.9 8.161l-1.771 1.771a3.75 3.75 0 0 1-5.197 5.197l-1.417 1.416A9.25 9.25 0 0 0 12 17.25c2.287 0 4.38-.923 5.907-2.095.762-.585 1.364-1.218 1.77-1.801.419-.604.573-1.077.573-1.354 0-.277-.154-.75-.573-1.354-.406-.583-1.008-1.216-1.77-1.801-.313-.24-.65-.47-1.008-.684Zm-5.87 5.87a2.25 2.25 0 0 0 3-3l-3 3Z" clip-rule="evenodd"/><path fill="currentColor" d="M12 5.25c1.032 0 2.024.16 2.951.431a.243.243 0 0 1 .1.407l-.824.825a.254.254 0 0 1-.237.067A8.872 8.872 0 0 0 12 6.75c-2.287 0-4.38.923-5.907 2.095-.762.585-1.364 1.218-1.77 1.801-.419.604-.573 1.077-.573 1.354 0 .277.154.75.573 1.354.354.51.858 1.057 1.488 1.577.116.095.127.27.02.377l-.708.709a.246.246 0 0 1-.333.016 9.52 9.52 0 0 1-1.699-1.824C2.6 13.5 2.25 12.723 2.25 12c0-.723.35-1.5.841-2.209.506-.729 1.222-1.47 2.088-2.136C6.91 6.327 9.316 5.25 12 5.25Z"/><path fill="currentColor" d="M12 8.25c.118 0 .236.005.351.016.197.019.268.254.129.394l-1.213 1.212a2.256 2.256 0 0 0-1.395 1.395L8.66 12.48c-.14.14-.375.068-.394-.129A3.75 3.75 0 0 1 12 8.25Z"/></symbol><symbol xmlns="http://www.w3.org/2000/svg" id="eye" fill="none" viewBox="0 0 20 20"><path fill="currentColor" d="M18.225 9.583c-.533-.925-3.467-5.566-8.45-5.416-4.608.116-7.275 4.166-8 5.416a.833.833 0 0 0 0 .834c.525.908 3.333 5.416 8.242 5.416h.208c4.608-.116 7.283-4.166 8-5.416a.834.834 0 0 0 0-.834Zm-8.042 4.584C6.592 14.25 4.25 11.175 3.517 10c.833-1.342 3.008-4.083 6.341-4.167 3.575-.091 5.925 2.992 6.667 4.167-.858 1.342-3.008 4.083-6.342 4.167Z"/><path fill="currentColor" d="M10 7.083a2.917 2.917 0 1 0 0 5.834 2.917 2.917 0 0 0 0-5.834Zm0 4.167a1.25 1.25 0 1 1 0-2.5 1.25 1.25 0 0 1 0 2.5Z"/></symbol><symbol xmlns="http://www.w3.org/2000/svg" id="image" fill="none" viewBox="0 0 17 16"><path fill="currentColor" d="M12.5 2h-8a2 2 0 0 0-2 2v8a2 2 0 0 0 2 2h8a2 2 0 0 0 2-2V4a2 2 0 0 0-2-2Zm-8 1.333h8a.667.667 0 0 1 .667.667v5.573l-2.134-1.82a1.847 1.847 0 0 0-2.346 0L3.833 11.8V4a.667.667 0 0 1 .667-.667Zm8 9.334H4.873L9.54 8.773a.52.52 0 0 1 .62 0l3.007 2.56V12a.667.667 0 0 1-.667.667Z"/><path fill="currentColor" d="M5.833 6.667a1 1 0 1 0 0-2 1 1 0 0 0 0 2Z"/></symbol><symbol xmlns="http://www.w3.org/2000/svg" id="log-out" fill="none" viewBox="0 0 16 16"><path fill="currentColor" d="M4.667 4a.667.667 0 0 0 0-1.333H3.333a.667.667 0 0 0-.666.666v9.334a.667.667 0 0 0 .666.666h1.334a.666.666 0 1 0 0-1.333H4V4h.667Zm9.213 3.613L12 4.947a.667.667 0 1 0-1.087.773l1.147 1.613H6.667a.667.667 0 0 0 0 1.334H12l-1.2 1.6a.67.67 0 0 0 .133.933.666.666 0 0 0 .934-.133l2-2.667a.667.667 0 0 0 .013-.787Z"/></symbol><symbol xmlns="http://www.w3.org/2000/svg" id="more" fill="none" viewBox="0 0 18 18"><circle cx="9" cy="9" r="8.5" stroke="currentColor"/><g fill="currentColor" clip-path="url(#a)"><path d="M9 10a1 1 0 1 0 0-2 1 1 0 0 0 0 2Zm0-3.5a1 1 0 1 0 0-2 1 1 0 0 0 0 2Zm0 7a1 1 0 1 0 0-2 1 1 0 0 0 0 2Z"/></g><defs><clipPath id="a"><path fill="currentColor" d="M3 3h12v12H3z"/></clipPath></defs></symbol><symbol xmlns="http://www.w3.org/2000/svg" id="play" fill="none" viewBox="0 0 16 16"><path fill="currentColor" d="M8 1.333a6.667 6.667 0 1 0 0 13.334A6.667 6.667 0 0 0 8 1.333Zm0 12A5.333 5.333 0 1 1 8 2.668a5.333 5.333 0 0 1 0 10.665Z"/><path fill="currentColor" d="M8.227 4.967a1.133 1.133 0 0 0-1.234-.2 1.067 1.067 0 0 0-.666.986v4.494a1.067 1.067 0 0 0 .666.986c.145.066.302.1.46.1a1.16 1.16 0 0 0 .774-.3l2.44-2.246a1.068 1.068 0 0 0 0-1.574l-2.44-2.246Zm-.56 4.766V6.267L9.54 8 7.667 9.733Z"/></symbol><symbol xmlns="http://www.w3.org/2000/svg" id="profile" fill="none" viewBox="0 0 16 16"><path fill="currentColor" d="M8 7.334a2.667 2.667 0 1 0 0-5.333 2.667 2.667 0 0 0 0 5.333Zm0-4a1.333 1.333 0 1 1 0 2.667 1.333 1.333 0 0 1 0-2.667Zm0 5.333a4.667 4.667 0 0 0-4.667 4.667.667.667 0 1 0 1.334 0 3.333 3.333 0 0 1 6.666 0 .667.667 0 0 0 1.334 0A4.667 4.667 0 0 0 8 8.667Z"/></symbol><symbol xmlns="http://www.w3.org/2000/svg" id="search" fill="none" viewBox="0 0 16 16"><path fill="currentColor" d="m15.258 14.075-2.833-2.825a6.6 6.6 0 0 0 1.408-4.083 6.667 6.667 0 1 0-6.666 6.666 6.6 6.6 0 0 0 4.083-1.408l2.825 2.833a.833.833 0 0 0 1.183 0 .832.832 0 0 0 0-1.183ZM2.167 7.167a5 5 0 1 1 10 0 5 5 0 0 1-10 0Z"/></symbol><symbol xmlns="http://www.w3.org/2000/svg" id="spinner" fill="#fff" viewBox="0 0 1792 1792"><path d="M526 1394q0 53-37.5 90.5T398 1522q-52 0-90-38t-38-90q0-53 37.5-90.5T398 1266t90.5 37.5T526 1394zm498 206q0 53-37.5 90.5T896 1728t-90.5-37.5T768 1600t37.5-90.5T896 1472t90.5 37.5 37.5 90.5zM320 896q0 53-37.5 90.5T192 1024t-90.5-37.5T64 896t37.5-90.5T192 768t90.5 37.5T320 896zm1202 498q0 52-38 90t-90 38q-53 0-90.5-37.5T1266 1394t37.5-90.5 90.5-37.5 90.5 37.5 37.5 90.5zM558 398q0 66-47 113t-113 47-113-47-47-113 47-113 113-47 113 47 47 113zm1170 498q0 53-37.5 90.5T1600 1024t-90.5-37.5T1472 896t37.5-90.5T1600 768t90.5 37.5T1728 896zm-640-704q0 80-56 136t-136 56-136-56-56-136 56-136T896 0t136 56 56 136zm530 206q0 93-66 158.5T1394 622q-93 0-158.5-65.5T1170 398q0-92 65.5-158t158.5-66q92 0 158 66t66 158z"/></symbol><symbol xmlns="http://www.w3.org/2000/svg" id="star-border" fill="none" viewBox="0 0 14 14"><path fill="currentColor" d="M10.707 13.5a.666.666 0 0 1-.307-.073L7 11.647l-3.4 1.78a.666.666 0 0 1-.967-.707L3.3 8.967.553 6.3a.667.667 0 0 1-.166-.667.667.667 0 0 1 .54-.453l3.8-.553L6.4 1.207a.667.667 0 0 1 1.2 0L9.293 4.62l3.8.553a.667.667 0 0 1 .54.454.666.666 0 0 1-.166.666L10.72 8.96l.667 3.753a.666.666 0 0 1-.267.667.667.667 0 0 1-.413.12ZM7 10.233a.614.614 0 0 1 .307.074L9.82 11.64l-.48-2.807a.667.667 0 0 1 .193-.593l2-1.953-2.8-.414A.667.667 0 0 1 8.26 5.5L7 3 5.74 5.5a.667.667 0 0 1-.5.36l-2.8.413 2 1.954a.667.667 0 0 1 .193.593l-.48 2.773 2.514-1.333A.614.614 0 0 1 7 10.233Z"/></symbol><symbol xmlns="http://www.w3.org/2000/svg" id="star" fill="none" viewBox="0 0 16 17"><g clip-path="url(#a)"><path fill="currentColor" d="M11.707 14.5a.666.666 0 0 1-.307-.073L8 12.647l-3.4 1.78a.666.666 0 0 1-.967-.707L4.3 9.967 1.553 7.3a.667.667 0 0 1-.166-.667.667.667 0 0 1 .54-.453l3.8-.553L7.4 2.207a.667.667 0 0 1 1.2 0l1.693 3.413 3.8.553a.667.667 0 0 1 .54.454.666.666 0 0 1-.166.666L11.72 9.96l.667 3.753a.666.666 0 0 1-.267.667.667.667 0 0 1-.413.12Z"/></g></symbol><symbol xmlns="http://www.w3.org/2000/svg" id="trash" fill="none" viewBox="0 0 16 16"><path fill="currentColor" d="M14 4h-3.333V2.887A1.614 1.614 0 0 0 9 1.333H7a1.613 1.613 0 0 0-1.667 1.554V4H2a.667.667 0 1 0 0 1.333h.667v7.334a2 2 0 0 0 2 2h6.666a2 2 0 0 0 2-2V5.333H14A.667.667 0 1 0 14 4ZM6.667 2.887c0-.107.14-.22.333-.22h2c.193 0 .333.113.333.22V4H6.667V2.887ZM12 12.667a.666.666 0 0 1-.667.666H4.667A.667.667 0 0 1 4 12.667V5.333h8v7.334Z"/></symbol></svg>